<mxfile host="app.diagrams.net" modified="2020-09-22T17:08:48.094Z" agent="5.0 (X11)" etag="fGUYvI100L0QaxwMbe24" version="13.7.4" type="github">
  <diagram id="t9chOG4Z199XV84NwMAH" name="Page-1">
    <mxGraphModel dx="2272" dy="768" grid="1" gridSize="10" guides="1" tooltips="1" connect="1" arrows="1" fold="1" page="1" pageScale="1" pageWidth="850" pageHeight="1100" math="0" shadow="0">
      <root>
        <mxCell id="0" />
        <mxCell id="1" parent="0" />
        <mxCell id="qj59T8PlFzmpi_8qOas6-2" value="FC" style="rounded=1;arcSize=10;whiteSpace=wrap;html=1;align=center;" vertex="1" parent="1">
          <mxGeometry x="-515" y="150" width="70" height="30" as="geometry" />
        </mxCell>
        <mxCell id="qj59T8PlFzmpi_8qOas6-3" value="LSTM" style="rounded=1;arcSize=10;whiteSpace=wrap;html=1;align=center;" vertex="1" parent="1">
          <mxGeometry x="-515" y="210" width="70" height="30" as="geometry" />
        </mxCell>
        <mxCell id="qj59T8PlFzmpi_8qOas6-4" value="Resnet" style="rounded=1;arcSize=10;whiteSpace=wrap;html=1;align=center;" vertex="1" parent="1">
          <mxGeometry x="-515" y="310" width="70" height="30" as="geometry" />
        </mxCell>
        <mxCell id="qj59T8PlFzmpi_8qOas6-46" value="" style="rounded=0;whiteSpace=wrap;html=1;fillColor=#ffe6cc;strokeColor=#d79b00;" vertex="1" parent="1">
          <mxGeometry x="-520" y="270" width="80" height="10" as="geometry" />
        </mxCell>
        <mxCell id="qj59T8PlFzmpi_8qOas6-50" value="" style="endArrow=classic;html=1;" edge="1" parent="1">
          <mxGeometry width="50" height="50" relative="1" as="geometry">
            <mxPoint x="-480" y="310" as="sourcePoint" />
            <mxPoint x="-480" y="280" as="targetPoint" />
          </mxGeometry>
        </mxCell>
        <mxCell id="qj59T8PlFzmpi_8qOas6-53" value="" style="endArrow=classic;html=1;" edge="1" parent="1">
          <mxGeometry width="50" height="50" relative="1" as="geometry">
            <mxPoint x="-480" y="270" as="sourcePoint" />
            <mxPoint x="-480.5" y="240" as="targetPoint" />
          </mxGeometry>
        </mxCell>
        <mxCell id="qj59T8PlFzmpi_8qOas6-57" value="" style="endArrow=classic;html=1;" edge="1" parent="1">
          <mxGeometry width="50" height="50" relative="1" as="geometry">
            <mxPoint x="-480" y="210" as="sourcePoint" />
            <mxPoint x="-480.5" y="180" as="targetPoint" />
          </mxGeometry>
        </mxCell>
        <mxCell id="qj59T8PlFzmpi_8qOas6-58" value="FC" style="rounded=1;arcSize=10;whiteSpace=wrap;html=1;align=center;" vertex="1" parent="1">
          <mxGeometry x="-395" y="150" width="70" height="30" as="geometry" />
        </mxCell>
        <mxCell id="qj59T8PlFzmpi_8qOas6-59" value="LSTM" style="rounded=1;arcSize=10;whiteSpace=wrap;html=1;align=center;" vertex="1" parent="1">
          <mxGeometry x="-395" y="210" width="70" height="30" as="geometry" />
        </mxCell>
        <mxCell id="qj59T8PlFzmpi_8qOas6-60" value="Resnet" style="rounded=1;arcSize=10;whiteSpace=wrap;html=1;align=center;" vertex="1" parent="1">
          <mxGeometry x="-395" y="310" width="70" height="30" as="geometry" />
        </mxCell>
        <mxCell id="qj59T8PlFzmpi_8qOas6-61" value="" style="rounded=0;whiteSpace=wrap;html=1;fillColor=#f8cecc;strokeColor=#b85450;" vertex="1" parent="1">
          <mxGeometry x="-400" y="270" width="80" height="10" as="geometry" />
        </mxCell>
        <mxCell id="qj59T8PlFzmpi_8qOas6-62" value="" style="endArrow=classic;html=1;" edge="1" parent="1">
          <mxGeometry width="50" height="50" relative="1" as="geometry">
            <mxPoint x="-360" y="310" as="sourcePoint" />
            <mxPoint x="-360" y="280" as="targetPoint" />
          </mxGeometry>
        </mxCell>
        <mxCell id="qj59T8PlFzmpi_8qOas6-63" value="" style="endArrow=classic;html=1;" edge="1" parent="1">
          <mxGeometry width="50" height="50" relative="1" as="geometry">
            <mxPoint x="-360" y="270" as="sourcePoint" />
            <mxPoint x="-360.5" y="240" as="targetPoint" />
          </mxGeometry>
        </mxCell>
        <mxCell id="qj59T8PlFzmpi_8qOas6-64" value="" style="endArrow=classic;html=1;" edge="1" parent="1">
          <mxGeometry width="50" height="50" relative="1" as="geometry">
            <mxPoint x="-360" y="210" as="sourcePoint" />
            <mxPoint x="-360.5" y="180" as="targetPoint" />
          </mxGeometry>
        </mxCell>
        <mxCell id="qj59T8PlFzmpi_8qOas6-79" value="FC" style="rounded=1;arcSize=10;whiteSpace=wrap;html=1;align=center;" vertex="1" parent="1">
          <mxGeometry x="85" y="150" width="70" height="30" as="geometry" />
        </mxCell>
        <mxCell id="qj59T8PlFzmpi_8qOas6-80" value="LSTM" style="rounded=1;arcSize=10;whiteSpace=wrap;html=1;align=center;" vertex="1" parent="1">
          <mxGeometry x="85" y="210" width="70" height="30" as="geometry" />
        </mxCell>
        <mxCell id="qj59T8PlFzmpi_8qOas6-81" value="Resnet" style="rounded=1;arcSize=10;whiteSpace=wrap;html=1;align=center;" vertex="1" parent="1">
          <mxGeometry x="85" y="310" width="70" height="30" as="geometry" />
        </mxCell>
        <mxCell id="qj59T8PlFzmpi_8qOas6-82" value="" style="rounded=0;whiteSpace=wrap;html=1;fillColor=#d5e8d4;strokeColor=#82b366;" vertex="1" parent="1">
          <mxGeometry x="80" y="270" width="80" height="10" as="geometry" />
        </mxCell>
        <mxCell id="qj59T8PlFzmpi_8qOas6-83" value="" style="endArrow=classic;html=1;" edge="1" parent="1">
          <mxGeometry width="50" height="50" relative="1" as="geometry">
            <mxPoint x="120" y="310" as="sourcePoint" />
            <mxPoint x="120" y="280" as="targetPoint" />
          </mxGeometry>
        </mxCell>
        <mxCell id="qj59T8PlFzmpi_8qOas6-84" value="" style="endArrow=classic;html=1;" edge="1" parent="1">
          <mxGeometry width="50" height="50" relative="1" as="geometry">
            <mxPoint x="120" y="270" as="sourcePoint" />
            <mxPoint x="119.5" y="240" as="targetPoint" />
          </mxGeometry>
        </mxCell>
        <mxCell id="qj59T8PlFzmpi_8qOas6-85" value="" style="endArrow=classic;html=1;" edge="1" parent="1">
          <mxGeometry width="50" height="50" relative="1" as="geometry">
            <mxPoint x="120" y="210" as="sourcePoint" />
            <mxPoint x="119.5" y="180" as="targetPoint" />
          </mxGeometry>
        </mxCell>
        <mxCell id="qj59T8PlFzmpi_8qOas6-86" value="" style="endArrow=classic;html=1;" edge="1" parent="1">
          <mxGeometry width="50" height="50" relative="1" as="geometry">
            <mxPoint x="-440" y="219.5" as="sourcePoint" />
            <mxPoint x="-400" y="219.5" as="targetPoint" />
          </mxGeometry>
        </mxCell>
        <mxCell id="qj59T8PlFzmpi_8qOas6-87" value="" style="endArrow=classic;html=1;" edge="1" parent="1">
          <mxGeometry width="50" height="50" relative="1" as="geometry">
            <mxPoint x="-400" y="229.5" as="sourcePoint" />
            <mxPoint x="-440" y="229.5" as="targetPoint" />
          </mxGeometry>
        </mxCell>
        <mxCell id="qj59T8PlFzmpi_8qOas6-89" value="" style="endArrow=classic;html=1;" edge="1" parent="1">
          <mxGeometry width="50" height="50" relative="1" as="geometry">
            <mxPoint x="-320" y="219.5" as="sourcePoint" />
            <mxPoint x="-280" y="219.5" as="targetPoint" />
          </mxGeometry>
        </mxCell>
        <mxCell id="qj59T8PlFzmpi_8qOas6-90" value="" style="endArrow=classic;html=1;" edge="1" parent="1">
          <mxGeometry width="50" height="50" relative="1" as="geometry">
            <mxPoint x="-280" y="229.5" as="sourcePoint" />
            <mxPoint x="-320" y="229.5" as="targetPoint" />
          </mxGeometry>
        </mxCell>
        <mxCell id="qj59T8PlFzmpi_8qOas6-92" value="FC" style="rounded=1;arcSize=10;whiteSpace=wrap;html=1;align=center;" vertex="1" parent="1">
          <mxGeometry x="-275" y="150" width="70" height="30" as="geometry" />
        </mxCell>
        <mxCell id="qj59T8PlFzmpi_8qOas6-93" value="LSTM" style="rounded=1;arcSize=10;whiteSpace=wrap;html=1;align=center;" vertex="1" parent="1">
          <mxGeometry x="-275" y="210" width="70" height="30" as="geometry" />
        </mxCell>
        <mxCell id="qj59T8PlFzmpi_8qOas6-94" value="Resnet" style="rounded=1;arcSize=10;whiteSpace=wrap;html=1;align=center;" vertex="1" parent="1">
          <mxGeometry x="-275" y="310" width="70" height="30" as="geometry" />
        </mxCell>
        <mxCell id="qj59T8PlFzmpi_8qOas6-95" value="" style="rounded=0;whiteSpace=wrap;html=1;fillColor=#e1d5e7;strokeColor=#9673a6;" vertex="1" parent="1">
          <mxGeometry x="-280" y="270" width="80" height="10" as="geometry" />
        </mxCell>
        <mxCell id="qj59T8PlFzmpi_8qOas6-96" value="" style="endArrow=classic;html=1;" edge="1" parent="1">
          <mxGeometry width="50" height="50" relative="1" as="geometry">
            <mxPoint x="-240" y="310" as="sourcePoint" />
            <mxPoint x="-240" y="280" as="targetPoint" />
          </mxGeometry>
        </mxCell>
        <mxCell id="qj59T8PlFzmpi_8qOas6-97" value="" style="endArrow=classic;html=1;" edge="1" parent="1">
          <mxGeometry width="50" height="50" relative="1" as="geometry">
            <mxPoint x="-240" y="270" as="sourcePoint" />
            <mxPoint x="-240.5" y="240" as="targetPoint" />
          </mxGeometry>
        </mxCell>
        <mxCell id="qj59T8PlFzmpi_8qOas6-98" value="" style="endArrow=classic;html=1;" edge="1" parent="1">
          <mxGeometry width="50" height="50" relative="1" as="geometry">
            <mxPoint x="-240" y="210" as="sourcePoint" />
            <mxPoint x="-240.5" y="180" as="targetPoint" />
          </mxGeometry>
        </mxCell>
        <mxCell id="qj59T8PlFzmpi_8qOas6-99" value="" style="endArrow=classic;html=1;" edge="1" parent="1">
          <mxGeometry width="50" height="50" relative="1" as="geometry">
            <mxPoint x="-200" y="219.5" as="sourcePoint" />
            <mxPoint x="-160" y="219.5" as="targetPoint" />
          </mxGeometry>
        </mxCell>
        <mxCell id="qj59T8PlFzmpi_8qOas6-100" value="" style="endArrow=classic;html=1;" edge="1" parent="1">
          <mxGeometry width="50" height="50" relative="1" as="geometry">
            <mxPoint x="-160" y="229.5" as="sourcePoint" />
            <mxPoint x="-200" y="229.5" as="targetPoint" />
          </mxGeometry>
        </mxCell>
        <mxCell id="qj59T8PlFzmpi_8qOas6-101" value="FC" style="rounded=1;arcSize=10;whiteSpace=wrap;html=1;align=center;" vertex="1" parent="1">
          <mxGeometry x="-155" y="150" width="70" height="30" as="geometry" />
        </mxCell>
        <mxCell id="qj59T8PlFzmpi_8qOas6-102" value="LSTM" style="rounded=1;arcSize=10;whiteSpace=wrap;html=1;align=center;" vertex="1" parent="1">
          <mxGeometry x="-155" y="210" width="70" height="30" as="geometry" />
        </mxCell>
        <mxCell id="qj59T8PlFzmpi_8qOas6-103" value="Resnet" style="rounded=1;arcSize=10;whiteSpace=wrap;html=1;align=center;" vertex="1" parent="1">
          <mxGeometry x="-155" y="310" width="70" height="30" as="geometry" />
        </mxCell>
        <mxCell id="qj59T8PlFzmpi_8qOas6-104" value="" style="rounded=0;whiteSpace=wrap;html=1;fillColor=#dae8fc;strokeColor=#6c8ebf;" vertex="1" parent="1">
          <mxGeometry x="-160" y="270" width="80" height="10" as="geometry" />
        </mxCell>
        <mxCell id="qj59T8PlFzmpi_8qOas6-105" value="" style="endArrow=classic;html=1;" edge="1" parent="1">
          <mxGeometry width="50" height="50" relative="1" as="geometry">
            <mxPoint x="-120" y="310" as="sourcePoint" />
            <mxPoint x="-120" y="280" as="targetPoint" />
          </mxGeometry>
        </mxCell>
        <mxCell id="qj59T8PlFzmpi_8qOas6-106" value="" style="endArrow=classic;html=1;" edge="1" parent="1">
          <mxGeometry width="50" height="50" relative="1" as="geometry">
            <mxPoint x="-120" y="270" as="sourcePoint" />
            <mxPoint x="-120.5" y="240" as="targetPoint" />
          </mxGeometry>
        </mxCell>
        <mxCell id="qj59T8PlFzmpi_8qOas6-107" value="" style="endArrow=classic;html=1;" edge="1" parent="1">
          <mxGeometry width="50" height="50" relative="1" as="geometry">
            <mxPoint x="-120" y="210" as="sourcePoint" />
            <mxPoint x="-120.5" y="180" as="targetPoint" />
          </mxGeometry>
        </mxCell>
        <mxCell id="qj59T8PlFzmpi_8qOas6-108" value="" style="endArrow=classic;html=1;" edge="1" parent="1">
          <mxGeometry width="50" height="50" relative="1" as="geometry">
            <mxPoint x="-80" y="219.5" as="sourcePoint" />
            <mxPoint x="-40" y="219.5" as="targetPoint" />
          </mxGeometry>
        </mxCell>
        <mxCell id="qj59T8PlFzmpi_8qOas6-109" value="" style="endArrow=classic;html=1;" edge="1" parent="1">
          <mxGeometry width="50" height="50" relative="1" as="geometry">
            <mxPoint x="-40" y="229.5" as="sourcePoint" />
            <mxPoint x="-80" y="229.5" as="targetPoint" />
          </mxGeometry>
        </mxCell>
        <mxCell id="qj59T8PlFzmpi_8qOas6-110" value="" style="endArrow=classic;html=1;" edge="1" parent="1">
          <mxGeometry width="50" height="50" relative="1" as="geometry">
            <mxPoint x="40" y="219.5" as="sourcePoint" />
            <mxPoint x="80" y="219.5" as="targetPoint" />
          </mxGeometry>
        </mxCell>
        <mxCell id="qj59T8PlFzmpi_8qOas6-111" value="" style="endArrow=classic;html=1;" edge="1" parent="1">
          <mxGeometry width="50" height="50" relative="1" as="geometry">
            <mxPoint x="80" y="229.5" as="sourcePoint" />
            <mxPoint x="40" y="229.5" as="targetPoint" />
          </mxGeometry>
        </mxCell>
        <mxCell id="qj59T8PlFzmpi_8qOas6-118" value="" style="endArrow=none;dashed=1;html=1;dashPattern=1 3;strokeWidth=2;" edge="1" parent="1">
          <mxGeometry width="50" height="50" relative="1" as="geometry">
            <mxPoint x="-30" y="224.5" as="sourcePoint" />
            <mxPoint x="40" y="225" as="targetPoint" />
          </mxGeometry>
        </mxCell>
      </root>
    </mxGraphModel>
  </diagram>
</mxfile>
